<?xml version="1.0" encoding="UTF-8"?> <!-- Generator: Adobe Illustrator 27.5.0, SVG Export Plug-In . SVG Version: 6.00 Build 0) --> <svg xmlns="http://www.w3.org/2000/svg" xmlns:xlink="http://www.w3.org/1999/xlink" id="Слой_1" x="0px" y="0px" viewBox="0 0 78 60" style="enable-background:new 0 0 78 60;" xml:space="preserve"> <style type="text/css"> .st0{fill:#1D2B33;} .st1{fill-rule:evenodd;clip-rule:evenodd;fill:#E9FAFF;} .st2{fill:none;stroke:#002A3A;stroke-width:0.467;stroke-linecap:round;stroke-linejoin:round;} .st3{fill:#002A3A;} .st4{fill:#FFFFFF;stroke:#002A3A;stroke-width:0.467;stroke-linejoin:round;} .st5{fill:none;stroke:#002A3A;stroke-width:0.467;stroke-linecap:round;} .st6{fill:#FFFFFF;} </style> <g> <path class="st0" d="M26.7,22.4l0.2-0.1c0,0.1,0,0.2-0.1,0.3L26.7,22.4z M23.9,23.1c1,0,1.9-0.3,2.7-0.9l0.3,0.4 c-0.9,0.7-1.9,1-3,1C23.9,23.6,23.9,23.1,23.9,23.1z"></path> <path class="st1" d="M34.7,20.1c1,0,1.9,0.8,1.9,1.9v9.9c0,0.8-1,1.3-1.6,0.7l-2-2H13.8c-1,0-1.9-0.8-1.9-1.9V22 c0-1,0.8-1.9,1.9-1.9L34.7,20.1L34.7,20.1z"></path> <path class="st2" d="M33.1,23.8H14.9 M33.1,26.6h-8.4"></path> <path class="st3" d="M38.3,7.6c-1.8,2.4,0.2,5.5,1.6,6.9l12.2,10.6c0.7,0.2,2.4,0.2,4.3-1.7c2.3-2.3,1.3-4.9,2.3-5.9 c1-1,2.6-1,2.3-3.3c-0.3-1.8-2.1-2.7-3-3c1.6-1,2-3.6,0.7-5.3c-1.1-1.3-3.5-0.8-4.6-0.3c0.1-0.8-0.3-2.1-2.6-2.3 c-2.5-0.2-2.8,1.3-6.9,2.2C42.6,5.9,40.9,4.2,38.3,7.6z"></path> <path class="st4" d="M45.5,28.7c6.6-0.3,8.2-5.8,8.2-8.6c2.3-1,3.7-2.7,2.3-4.6c-1-1.3-2.4-0.1-3.3,1c0.4-2,0.7-6-1.6-6.3 c-3-0.3-6.3,3.6-7.9,3c-1.1-0.4-2-1.6-3-0.7C39.3,18,38.9,28.9,45.5,28.7z"></path> <g> <path class="st3" d="M60.6,69.1c0.7-3.6,1.3-15.9,1.5-20.1c0.4-5-1.2-15.5-2.7-15.9c-3.3-0.8-11.8,0-17.5,0.5 c-3.5,0.3-4.8,2.7-5.8,5.4c-0.7,1.9-1.1,4-1.2,5.6c0.4,7.6,2.2,21.2,2.2,25.3C45.1,73.3,57.4,70.6,60.6,69.1L60.6,69.1z"></path> </g> <g> <path class="st3" d="M55.2,30.2l0.6,3.6c-6.3,1.1-10.9,0.9-12.2,0.6V32C43.6,32,55.2,30.2,55.2,30.2z"></path> </g> <path class="st4" d="M53.4,23.7c-1.9,4.8-6.9,5.2-9.2,4.9l0.5,3.3l9.6-1.2L53.4,23.7L53.4,23.7z"></path> <ellipse transform="matrix(0.4087 -0.9127 0.9127 0.4087 14.2249 52.1838)" class="st3" cx="47.4" cy="15.1" rx="0.7" ry="1.6"></ellipse> <ellipse transform="matrix(0.8561 -0.5168 0.5168 0.8561 -1.917 23.627)" class="st3" cx="41.5" cy="15.3" rx="1.6" ry="0.7"></ellipse> <ellipse transform="matrix(0.2695 -0.963 0.963 0.2695 16.3651 58.2487)" class="st3" cx="46.6" cy="18.3" rx="1" ry="0.7"></ellipse> <ellipse transform="matrix(0.1189 -0.9929 0.9929 0.1189 18.2497 56.4919)" class="st3" cx="41" cy="18" rx="1" ry="0.7"></ellipse> <path class="st5" d="M43.2,17.5c-0.1,1.3-0.2,4.1,0.2,5.1c0.1,0.1,0.2,0.2,0.3,0.2c0.2,0,0.6-0.1,0.8-0.7 M48,22 c0.2,0.5,0.3,1.8-1.3,2.3"></path> <path class="st3" d="M44.9,31.6c6.1-1.3,8.2-6.5,8.6-8.9c-1.6,5.3-6.6,6.2-8.9,5.9L44.9,31.6z"></path> <g> <path class="st3" d="M35.8,34.2c3.6-0.9,7.1-0.8,9.7,0c0,0-12.2,10.2-11.4,10.6l-0.4,3.8c-5.6,8.6-13.7,5.6-14.5,4.4 c-1.1-1.6-0.2-5.1,3-6.5C22.2,46.4,31.3,35.2,35.8,34.2z"></path> </g> <path class="st6" d="M38.9,37.4c-0.7-0.1-2.4,1.9-3.4,3l-0.9-2.5l-2.2,5.4c-0.3,0.3-0.6,0.6-0.9,0.9c-1,1.1-0.7,1.6-0.6,3.1 c0,0.5,0.2,1.2,0.6,1.4c0.9,0.4,2.4,0,3.4-0.5c0.8-0.4,1.1-0.8,2.8-1.4c2.1-0.7,5.2-1.8,5-2.1c-0.2-0.3-2-0.2-3.6,0.2 c1.3-0.7,4.2-2,3.8-2.6c-0.4-0.5-3.3,0.5-4.5,1c1-0.9,3.7-3.5,2.7-3.8c-0.9-0.3-3,1.4-4.2,2.5C37.3,41,39.7,37.4,38.9,37.4 L38.9,37.4z"></path> <path class="st2" d="M35.5,40.4c1-1.1,2.7-3,3.4-3c0.9,0.1-1.5,3.7-1.9,4.5 M35.5,40.4l-0.9-2.5l-2.2,5.4c-0.3,0.3-0.6,0.6-0.9,0.9 c-1,1.1-0.7,1.6-0.6,3.1c0,0.5,0.2,1.2,0.6,1.4c0.9,0.4,2.4,0,3.4-0.5c0.8-0.4,1.1-0.8,2.8-1.4c2.1-0.7,5.2-1.8,5-2.1 c-0.2-0.3-2-0.2-3.6,0.2c1.3-0.7,4.2-2,3.8-2.6c-0.4-0.5-3.3,0.5-4.5,1 M35.5,40.4l-1.3,1.8 M36.4,42.5c1.2-1.2,3.8-3.4,4.8-3 c1,0.4-1.8,2.9-2.7,3.8 M38.1,43.6c0,0,0.2-0.1,0.3-0.3"></path> <path class="st3" d="M74.9,54.8c-5-14.3-11-19.4-15.1-21.6V47l6.2,9.6l-8.2,14.8l4.6,3C75.6,64.1,76,57.8,74.9,54.8z"></path> </g> </svg> 