<?xml version="1.0" encoding="UTF-8"?> <!-- Generator: Adobe Illustrator 27.2.0, SVG Export Plug-In . SVG Version: 6.00 Build 0) --> <svg xmlns="http://www.w3.org/2000/svg" xmlns:xlink="http://www.w3.org/1999/xlink" id="Слой_1" x="0px" y="0px" viewBox="0 0 500 500" style="enable-background:new 0 0 500 500;" xml:space="preserve"> <style type="text/css"> .st0{fill-rule:evenodd;clip-rule:evenodd;fill-opacity:0.85;} </style> <path class="st0" d="M200.19,25.06c29.46-22.09,69.95-22.09,99.41,0l165.68,124.26c20.86,15.64,33.14,40.2,33.14,66.27V436.5 c0,30.5-24.73,55.23-55.23,55.23h-96.65c-30.5,0-55.23-24.73-55.23-55.23v-82.84h-82.84v82.84c0,30.5-24.73,55.23-55.23,55.23H56.6 c-30.5,0-55.23-24.73-55.23-55.23V215.59c0-26.08,12.28-50.63,33.14-66.27L200.19,25.06z M266.46,69.24 c-9.82-7.36-23.32-7.36-33.14,0L67.65,193.5c-6.95,5.22-11.05,13.4-11.05,22.09V436.5h96.65v-82.84c0-30.5,24.73-55.23,55.23-55.23 h82.84c30.5,0,55.23,24.73,55.23,55.23v82.84h96.65V215.59c0-8.69-4.09-16.87-11.05-22.09L266.46,69.24z"></path> </svg> 