<?xml version="1.0" encoding="UTF-8"?> <!-- Generator: Adobe Illustrator 27.4.1, SVG Export Plug-In . SVG Version: 6.00 Build 0) --> <svg xmlns="http://www.w3.org/2000/svg" xmlns:xlink="http://www.w3.org/1999/xlink" id="Слой_1" x="0px" y="0px" viewBox="0 0 104 104" style="enable-background:new 0 0 104 104;" xml:space="preserve"> <style type="text/css"> .st0{fill:#FFFFFF;} </style> <g id="n90WxO.tif"> <g> <path class="st0" d="M43.6,24.1c5.5,0,11.1,0,16.6,0c0.6,0,1.1,0.1,1.7,0.1c2.1,0.1,4.1,0.2,6.1,0.7c3.8,0.9,6.9,2.9,9.1,6.2 c1.5,2.3,2.2,4.8,2.5,7.5c0.1,0.7,0.1,1.3,0.2,2c0,7.4,0,14.9,0,22.3c-0.1,0.8-0.1,1.6-0.2,2.3c-0.3,2.6-0.9,5.1-2.3,7.3 c-2.7,4.4-6.8,6.6-11.7,7c-2.8,0.3-5.7,0.3-8.6,0.3c-5.5,0-11-0.1-16.4-0.1c-1.7,0-3.4-0.3-5.1-0.7c-4.9-1.3-8.3-4.3-10.1-9 c-0.9-2.3-1.2-4.6-1.2-7c0-7.1-0.1-14.2,0-21.4c0-1.7,0.2-3.5,0.6-5.2c1.3-6.4,5.9-10.8,12.3-11.8c1.9-0.3,3.9-0.3,5.9-0.5 C43.2,24.1,43.4,24.1,43.6,24.1z M52,75C52,74.9,52,74.9,52,75c2-0.1,4.1,0,6.1-0.1c2.6-0.1,5.2-0.1,7.8-0.4 c4-0.5,6.8-2.7,8.1-6.6c0.6-1.8,0.8-3.7,0.8-5.6c0-6.5,0.1-13,0-19.5c0-1.7-0.1-3.5-0.4-5.2c-0.8-4.3-3.4-7-7.7-7.9 c-2.1-0.5-4.2-0.5-6.3-0.5c-5,0-10,0-15,0c-2.5,0-5.1,0-7.6,0.5c-4.1,0.8-6.8,3.1-7.9,7.2c-0.5,2-0.6,4-0.6,6c0,6.2,0,12.3,0,18.5 c0,2,0.1,4.1,0.6,6c0.9,3.3,2.9,5.6,6.2,6.7c1.9,0.6,3.8,0.8,5.8,0.8C45.2,74.9,48.6,74.9,52,75z"></path> <path class="st0" d="M52,66.4c-7.9,0-14.4-6.5-14.3-14.4c0-7.9,6.5-14.4,14.4-14.3C60,37.7,66.4,44.1,66.3,52 C66.3,60,59.9,66.4,52,66.4z M42.7,52c0,5.1,4.1,9.3,9.3,9.3c5.1,0,9.3-4.1,9.3-9.2c0-5.2-4.1-9.3-9.3-9.4 C46.9,42.7,42.7,46.8,42.7,52z"></path> <path class="st0" d="M70.3,37.1c0,1.9-1.5,3.4-3.3,3.4c-1.8,0-3.3-1.5-3.4-3.3c0-1.9,1.4-3.4,3.3-3.4 C68.7,33.7,70.2,35.2,70.3,37.1z"></path> </g> </g> </svg> 