<?xml version="1.0" encoding="UTF-8"?> <!-- Generator: Adobe Illustrator 27.5.0, SVG Export Plug-In . SVG Version: 6.00 Build 0) --> <svg xmlns="http://www.w3.org/2000/svg" xmlns:xlink="http://www.w3.org/1999/xlink" id="Слой_1" x="0px" y="0px" viewBox="0 0 153.8 153.8" style="enable-background:new 0 0 153.8 153.8;" xml:space="preserve"> <style type="text/css"> .st0{fill:#FFFFFF;} </style> <path class="st0" d="M102.7,2.4H51.1C24.2,2.4,2.4,24.2,2.4,51.1v51.6c0,26.9,21.8,48.7,48.7,48.7h51.6c26.9,0,48.7-21.8,48.7-48.7 V51.1C151.4,24.2,129.6,2.4,102.7,2.4z M58.4,61.5l1.8-6.4l1.3-5.2c0.6-2.1,3.3-2.7,4.5-0.9l4.4,5.5l5.7,6.9c0.3,0.4,1,0.4,1.3,0 l5.7-6.9l4.5-5.5c1.4-1.6,4.1-1,4.6,0.9l1.3,5.2l1.8,6.4c0.3,1.4,0,2.9-0.9,3.9l-4.9,6c-0.6,0.8-1.8,0.5-2.1-0.4l-1.5-6.1l-3.6,4.5 L78.6,74c-0.9,1-2.4,1-3.3,0l-3.9-4.8l-3.6-4.5L66.2,71c-0.3,0.8-1.5,1.1-2.1,0.4l-5-6C58.4,64.3,58,62.8,58.4,61.5z M116.5,100.3 h-2.2H111h-5.1h-8.1c-1.4,0-2.6-0.9-3-2.2v-0.7l-0.4-1.6c-0.3-1.3,0-2.8,0.9-4l5.4-6.7c0.3-0.4,1.1-0.3,1.2,0.3l1.2,4.6 c0.1,0.3,0.3,0.4,0.7,0.4h3.6c0.4,0,0.7-0.5,0.7-0.9l-3.6-13.1c-0.2-0.6-0.9-0.7-1.2-0.3l-20,24.6l-2.4,3c-2.1,2.5-6,2.5-7.9,0 L50.8,76.1c-0.3-0.4-1.1-0.3-1.2,0.3L46,89.5c-0.2,0.5,0.1,0.9,0.7,0.9h3.4c0.3,0,0.6-0.1,0.7-0.4l1.1-4.5c0.2-0.6,0.9-0.7,1.2-0.3 l5.4,6.7c0.9,1.2,1.2,2.7,0.9,4L59,97.4l-0.1,0.7c-0.3,1.3-1.7,2.2-3,2.2h-8.1h-5.1h-3.3h-2.2c-2.3,0-4.1-2.2-3.5-4.6L42.8,62v-0.2 c0.9-3.4,5.4-4.4,7.8-1.6l2.2,2.8l23.4,29c0.3,0.3,0.7,0.3,1,0l23.5-29.1l2.4-2.8c2.3-2.9,6.8-1.8,7.8,1.6l0.9,3.6l6.7,24.9l0.9,3.4 l0.4,1.9C120.7,98.1,119,100.3,116.5,100.3z"></path> </svg> 