<?xml version="1.0" encoding="UTF-8"?> <!-- Generator: Adobe Illustrator 27.3.1, SVG Export Plug-In . SVG Version: 6.00 Build 0) --> <svg xmlns="http://www.w3.org/2000/svg" xmlns:xlink="http://www.w3.org/1999/xlink" id="Слой_1" x="0px" y="0px" viewBox="0 0 100 100" style="enable-background:new 0 0 100 100;" xml:space="preserve"> <style type="text/css"> .st0{fill:#E31612;} </style> <path class="st0" d="M50,0C22.4,0,0,22.4,0,50s22.4,50,50,50s50-22.4,50-50S77.6,0,50,0z M37.6,39.7l1.2-4.3l0.9-3.5 c0.4-1.4,2.2-1.8,3-0.6l3,3.7h0v0l3.8,4.6c0.2,0.3,0.7,0.3,0.9,0l3.8-4.6v0h0l3-3.7c0.9-1.1,2.7-0.7,3,0.6l0.9,3.5l1.2,4.3 c0.2,0.9,0,1.9-0.6,2.6l-3.3,4c-0.4,0.5-1.2,0.3-1.4-0.3L56,41.9l-2.4,3L51.1,48c-0.6,0.7-1.6,0.7-2.2,0l-2.6-3.2l-2.4-3l-1.1,4.2 c-0.2,0.6-1,0.8-1.4,0.3l-3.3-4C37.6,41.6,37.3,40.6,37.6,39.7z M76.5,65.8h-1.5h-2.2h-3.4h-5.4c-0.9,0-1.7-0.6-2-1.5L62,63.8l0,0 l-0.3-1.1c-0.2-0.9,0-1.9,0.6-2.7l3.6-4.5c0.2-0.3,0.7-0.2,0.8,0.2l0.8,3.1c0.1,0.2,0.2,0.3,0.5,0.3h2.4c0.3,0,0.5-0.3,0.5-0.6 l-2.4-8.8c-0.1-0.4-0.6-0.5-0.8-0.2L54.3,66l-1.6,2c-1.4,1.7-4,1.7-5.3,0l-15-18.5c-0.2-0.3-0.7-0.2-0.8,0.2l-2.4,8.8 c-0.1,0.3,0.1,0.6,0.5,0.6H32c0.2,0,0.4-0.1,0.5-0.3l0.8-3.1c0.1-0.4,0.6-0.5,0.8-0.2l3.6,4.5c0.6,0.8,0.8,1.8,0.6,2.7L38,63.7l0,0 l-0.1,0.5c-0.2,0.9-1.1,1.5-2,1.5h-5.4h-3.4h-2.2h-1.5c-1.6,0-2.8-1.5-2.4-3.1l0,0l6.1-22.6l0-0.1c0.6-2.3,3.6-3,5.2-1.1l1.5,1.9 l15.7,19.4c0.2,0.2,0.5,0.2,0.7,0l15.7-19.4l1.6-1.9c1.5-1.9,4.5-1.2,5.2,1.1l0.6,2.4l4.5,16.7l0.6,2.3l0.3,1.3l0,0 C79.3,64.3,78.2,65.8,76.5,65.8z"></path> </svg> 