<?xml version="1.0" encoding="UTF-8"?> <!-- Generator: Adobe Illustrator 27.2.0, SVG Export Plug-In . SVG Version: 6.00 Build 0) --> <svg xmlns="http://www.w3.org/2000/svg" xmlns:xlink="http://www.w3.org/1999/xlink" id="Слой_1" x="0px" y="0px" viewBox="0 0 500 500" style="enable-background:new 0 0 500 500;" xml:space="preserve"> <style type="text/css"> .st0{fill-rule:evenodd;clip-rule:evenodd;fill-opacity:0.85;} </style> <path class="st0" d="M262.73,471.58C419.5,378.93,500,280.58,500,175.08c0-150.05-168.72-197.25-250-97.45 C168.72-22.17,0,25.03,0,175.08c0,105.5,80.47,203.82,237.28,296.5c3.85,2.28,8.25,3.48,12.72,3.48S258.87,473.86,262.73,471.58z M272.77,135.38C316.92,37.83,450,63.63,450,175.08c0,81.32-65.4,163.75-200,245.85C115.43,338.8,50,256.43,50,175.08 c0-111.48,133.07-137.25,177.22-39.7C236.1,154.98,263.9,154.98,272.77,135.38z"></path> </svg> 