<?xml version="1.0" encoding="UTF-8"?> <!-- Generator: Adobe Illustrator 27.4.1, SVG Export Plug-In . SVG Version: 6.00 Build 0) --> <svg xmlns="http://www.w3.org/2000/svg" xmlns:xlink="http://www.w3.org/1999/xlink" id="Слой_1" x="0px" y="0px" viewBox="0 0 104 104" style="enable-background:new 0 0 104 104;" xml:space="preserve"> <style type="text/css"> .st0{fill:#575757;} .st1{fill:#828282;} </style> <g> <path id="XMLID_1775_" class="st0" d="M27.5,84v-4c0-1.5-0.9-2.5-2.5-2.5c-0.8,0-1.7,0.3-2.2,1.1c-0.5-0.7-1.1-1.1-2.1-1.1 c-0.7,0-1.3,0.2-1.8,0.9v-0.8h-1.4V84h1.4v-3.5c0-1.1,0.6-1.7,1.5-1.7c0.9,0,1.4,0.6,1.4,1.7V84H23v-3.5c0-1.1,0.7-1.7,1.5-1.7 c0.9,0,1.4,0.6,1.4,1.7V84L27.5,84L27.5,84z M48,77.7h-2.2v-1.9h-1.4v1.9h-1.3v1.3h1.3v2.9c0,1.5,0.6,2.3,2.2,2.3 c0.6,0,1.3-0.2,1.7-0.5l-0.4-1.2c-0.4,0.3-0.9,0.3-1.2,0.3c-0.7,0-0.9-0.4-0.9-1.1v-2.8H48L48,77.7L48,77.7z M59.8,77.5 c-0.8,0-1.3,0.4-1.7,0.9v-0.8h-1.4V84h1.4v-3.6c0-1.1,0.5-1.7,1.3-1.7c0.3,0,0.6,0.1,0.9,0.1l0.4-1.3 C60.5,77.5,60.1,77.5,59.8,77.5L59.8,77.5z M42,78.2c-0.7-0.5-1.6-0.7-2.6-0.7c-1.6,0-2.6,0.8-2.6,2c0,1.1,0.8,1.7,2.2,1.8l0.7,0.1 c0.7,0.1,1.1,0.3,1.1,0.7c0,0.5-0.5,0.8-1.5,0.8c-0.9,0-1.7-0.3-2.1-0.7l-0.7,1.1c0.7,0.5,1.7,0.8,2.7,0.8c1.8,0,2.9-0.9,2.9-2 c0-1.1-0.9-1.7-2.2-1.9l-0.7-0.1c-0.6-0.1-1.1-0.2-1.1-0.6c0-0.5,0.5-0.7,1.2-0.7c0.8,0,1.6,0.3,2,0.5L42,78.2L42,78.2z M78.9,77.5 c-0.8,0-1.3,0.4-1.7,0.9v-0.8h-1.4V84h1.4v-3.6c0-1.1,0.5-1.7,1.3-1.7c0.3,0,0.6,0.1,0.9,0.1l0.4-1.3 C79.6,77.5,79.2,77.5,78.9,77.5L78.9,77.5z M61.2,80.8c0,1.9,1.3,3.3,3.4,3.3c0.9,0,1.6-0.2,2.2-0.7l-0.7-1.1 c-0.5,0.4-1.1,0.6-1.7,0.6c-1.1,0-1.9-0.8-1.9-2c0-1.2,0.8-2,1.9-2c0.6,0,1.1,0.2,1.7,0.6l0.7-1.1c-0.7-0.5-1.3-0.7-2.2-0.7 C62.5,77.5,61.2,78.9,61.2,80.8L61.2,80.8L61.2,80.8z M74,80.8v-3.2h-1.4v0.8c-0.5-0.6-1.1-0.9-2-0.9c-1.8,0-3.2,1.4-3.2,3.3 c0,1.9,1.4,3.3,3.2,3.3c0.9,0,1.6-0.3,2-0.9V84H74V80.8L74,80.8z M68.9,80.8c0-1.1,0.7-2,1.9-2c1.1,0,1.9,0.9,1.9,2 c0,1.1-0.8,2-1.9,2C69.7,82.8,68.9,81.9,68.9,80.8L68.9,80.8z M52.3,77.5c-1.8,0-3.2,1.3-3.2,3.3c0,2,1.3,3.3,3.2,3.3 c0.9,0,1.8-0.3,2.6-0.9l-0.7-1c-0.5,0.4-1.2,0.7-1.8,0.7c-0.9,0-1.7-0.4-1.9-1.5h4.7c0-0.2,0-0.3,0-0.5 C55.3,78.8,54.1,77.5,52.3,77.5L52.3,77.5L52.3,77.5z M52.3,78.7c0.9,0,1.5,0.5,1.6,1.5h-3.3C50.7,79.4,51.3,78.7,52.3,78.7 L52.3,78.7z M86.8,80.8v-5.7h-1.4v3.3c-0.5-0.6-1.1-0.9-2-0.9c-1.8,0-3.2,1.4-3.2,3.3s1.4,3.3,3.2,3.3c0.9,0,1.6-0.3,2-0.9V84h1.4 V80.8L86.8,80.8z M81.7,80.8c0-1.1,0.7-2,1.9-2c1.1,0,1.9,0.9,1.9,2c0,1.1-0.8,2-1.9,2C82.4,82.8,81.7,81.9,81.7,80.8L81.7,80.8z M35.3,80.8v-3.2h-1.4v0.8c-0.5-0.6-1.1-0.9-2-0.9c-1.8,0-3.2,1.4-3.2,3.3c0,1.9,1.4,3.3,3.2,3.3c0.9,0,1.6-0.3,2-0.9V84h1.4V80.8 L35.3,80.8z M30.1,80.8c0-1.1,0.7-2,1.9-2c1.1,0,1.9,0.9,1.9,2c0,1.1-0.8,2-1.9,2C30.8,82.8,30.1,81.9,30.1,80.8z"></path> <g> <rect id="rect19" x="41.6" y="29.4" class="st1" width="20.8" height="37.4"></rect> <path id="XMLID_330_" class="st0" d="M42.9,48.2c0-7.6,3.6-14.4,9.1-18.7c-4-3.2-9.1-5.1-14.7-5.1c-13.2,0-23.8,10.6-23.8,23.8 S24.2,72,37.3,72C42.9,72,48,70,52,66.9C46.5,62.6,42.9,55.8,42.9,48.2z"></path> <path id="path22" class="st0" d="M90.5,48.2C90.5,61.3,79.8,72,66.7,72C61.1,72,56,70,52,66.9c5.6-4.4,9.1-11.1,9.1-18.7 S57.5,33.8,52,29.4c4-3.2,9.1-5.1,14.7-5.1C79.8,24.4,90.5,35.1,90.5,48.2z"></path> </g> </g> </svg> 