<?xml version="1.0" encoding="UTF-8"?> <!-- Generator: Adobe Illustrator 27.5.0, SVG Export Plug-In . SVG Version: 6.00 Build 0) -->
<svg xmlns="http://www.w3.org/2000/svg" xmlns:xlink="http://www.w3.org/1999/xlink" xml:space="preserve"> <style type="text/css"> .st0{fill:#EF2551;} .st1{fill:#FFFFFF;} .st2{fill:#222222;} .st3{fill:none;stroke:#FFFFFF;stroke-width:1.5;} .st4{fill-rule:evenodd;clip-rule:evenodd;fill:#EF2551;} .st5{fill-rule:evenodd;clip-rule:evenodd;fill:#FFFFFF;} .st6{clip-path:url(#SVGID_00000077307073415008487310000006146084949405600130_);fill:#EF2551;} .st7{fill:none;stroke:#000222;stroke-width:2;stroke-miterlimit:10;} </style>
        <g id="Слой_1"> <g> <g> <path class="st0" d="M203.1,28H25.8v111.4h177.3l-44.9-54.9L203.1,28z"></path>
            <path class="st1"
                  d="M146.2,83.7c0,19.3-24.4,34.9-54.5,34.9S37.2,103,37.2,83.7s24.4-34.9,54.5-34.9S146.2,64.4,146.2,83.7z"></path> </g>
            <path class="st0" d="M72.6,77.8v5.9h-7.1v-5.9h-2.2v14h2.2v-6.3h7.1v6.3h2.2V77.8H72.6z"></path>
            <path class="st0" d="M77.9,91.8h9.7v-1.9h-7.5v-4.4h7.1v-1.8h-7.1v-4h7.5v-1.9h-9.7V91.8z"></path>
            <path class="st0" d="M92.1,77.8h-2.2v14.1h9.5v-1.9h-7.3V77.8z"></path>
            <path class="st0" d="M103.1,77.8h-2.2v14.1h9.5v-1.9h-7.3V77.8z"></path>
            <path class="st0"
                  d="M112.6,84.8c0-3.5,1.9-5.4,4.4-5.4c2.4,0,4.4,1.9,4.4,5.4s-1.9,5.5-4.4,5.5C114.5,90.2,112.6,88.3,112.6,84.8 z M123.6,84.8c0-4.3-2.6-7.3-6.6-7.3c-4.1,0-6.7,3-6.7,7.3c0,4.3,2.6,7.3,6.7,7.3C121,92.1,123.6,89.1,123.6,84.8z"></path>
        </g>
       </g>
</svg>