<?xml version="1.0" encoding="UTF-8"?> <!-- Generator: Adobe Illustrator 27.4.1, SVG Export Plug-In . SVG Version: 6.00 Build 0) --> <svg xmlns="http://www.w3.org/2000/svg" xmlns:xlink="http://www.w3.org/1999/xlink" id="Слой_1" x="0px" y="0px" viewBox="0 0 153.8 153.8" style="enable-background:new 0 0 153.8 153.8;" xml:space="preserve"> <style type="text/css"> .st0{fill:#E31612;} .st1{fill:#FFFFFF;} </style> <path class="st0" d="M102.7,151.4H51.1c-26.9,0-48.7-21.8-48.7-48.7V51.1c0-26.9,21.8-48.7,48.7-48.7h51.6 c26.9,0,48.7,21.8,48.7,48.7v51.6C151.4,129.6,129.6,151.4,102.7,151.4z"></path> <g> <path class="st1" d="M64.1,71.4c0.6,0.7,1.8,0.4,2.1-0.4l1.6-6.3l3.6,4.5l3.9,4.8c0.9,1,2.4,1,3.3,0l3.7-4.6l3.6-4.5l1.5,6.1 c0.3,0.9,1.5,1.2,2.1,0.4l4.9-6c0.9-1,1.2-2.5,0.9-3.9l-1.8-6.4l-1.3-5.2C91.7,48,89,47.4,87.6,49l-4.5,5.5l-5.7,6.9 c-0.3,0.4-1,0.4-1.3,0l-5.7-6.9L66,49c-1.2-1.8-3.9-1.2-4.5,0.9l-1.3,5.2l-1.8,6.4c-0.4,1.3,0,2.8,0.7,3.9L64.1,71.4z"></path> <path class="st1" d="M37.2,100.3h2.2h3.3h5.1h8.1c1.3,0,2.7-0.9,3-2.2l0.1-0.7l0.4-1.5c0.3-1.3,0-2.8-0.9-4l-5.4-6.7 c-0.3-0.4-1-0.3-1.2,0.3L50.8,90c-0.1,0.3-0.4,0.4-0.7,0.4h-3.4c-0.6,0-0.9-0.4-0.7-0.9l3.6-13.1c0.1-0.6,0.9-0.7,1.2-0.3L73,103.7 c1.9,2.5,5.8,2.5,7.9,0l2.4-3l20-24.6c0.3-0.4,1-0.3,1.2,0.3l3.6,13.1c0,0.4-0.3,0.9-0.7,0.9h-3.6c-0.4,0-0.6-0.1-0.7-0.4l-1.2-4.6 c-0.1-0.6-0.9-0.7-1.2-0.3l-5.4,6.7c-0.9,1.2-1.2,2.7-0.9,4l0.4,1.6v0.7c0.4,1.3,1.6,2.2,3,2.2h8.1h5.1h3.3h2.2 c2.5,0,4.2-2.2,3.3-4.8l-0.4-1.9l-0.9-3.4l-6.7-24.9l-0.9-3.6c-1-3.4-5.5-4.5-7.8-1.6l-2.4,2.8L77.2,92c-0.3,0.3-0.7,0.3-1,0 L52.8,63l-2.2-2.8c-2.4-2.8-6.9-1.8-7.8,1.6V62l-9.1,33.7C33.1,98.1,34.9,100.3,37.2,100.3z"></path> </g> </svg> 