<?xml version="1.0" encoding="UTF-8"?> <!-- Generator: Adobe Illustrator 27.2.0, SVG Export Plug-In . SVG Version: 6.00 Build 0) --> <svg xmlns="http://www.w3.org/2000/svg" xmlns:xlink="http://www.w3.org/1999/xlink" id="Слой_1" x="0px" y="0px" viewBox="0 0 500 500" style="enable-background:new 0 0 500 500;" xml:space="preserve"> <style type="text/css"> .st0{fill-opacity:0.85;} .st1{fill-rule:evenodd;clip-rule:evenodd;fill-opacity:0.85;} </style> <g> <path class="st0" d="M166.21,152.97c4.24,4.24,9.99,6.62,15.98,6.62h158.22c6,0,11.75-2.38,15.98-6.62 c4.24-4.24,6.62-9.99,6.62-15.98c0-5.99-2.38-11.74-6.62-15.98c-4.24-4.24-9.99-6.62-15.98-6.62H182.19 c-5.99,0-11.74,2.38-15.98,6.62c-4.24,4.24-6.62,9.99-6.62,15.98C159.59,142.98,161.97,148.73,166.21,152.97z"></path> <path class="st1" d="M114.38,1.37c-37.18,0-67.81,30.63-67.81,67.81v361.65c0,37.18,30.63,67.81,67.81,67.81h316.44 c6,0,11.75-2.38,15.98-6.62c4.24-4.24,6.62-9.99,6.62-15.98c0-6-2.38-11.75-6.62-15.98c-4.24-4.24-9.99-6.62-15.98-6.62H114.38 c-12.79,0-22.6-9.81-22.6-22.6c0-12.79,9.81-22.6,22.6-22.6h316.44c6,0,11.75-2.38,15.98-6.62c4.24-4.24,6.62-9.99,6.62-15.98 V23.97c0-5.99-2.38-11.74-6.62-15.98c-4.24-4.24-9.99-6.62-15.98-6.62H114.38z M114.38,46.57h293.84v316.44H114.38 c-7.72,0.1-15.37,1.54-22.6,4.25V69.17C91.78,56.38,101.59,46.57,114.38,46.57z"></path> </g> </svg> 