<?xml version="1.0" encoding="UTF-8"?> <!-- Generator: Adobe Illustrator 27.5.0, SVG Export Plug-In . SVG Version: 6.00 Build 0) --> <svg xmlns="http://www.w3.org/2000/svg" xmlns:xlink="http://www.w3.org/1999/xlink" id="Слой_1" x="0px" y="0px" viewBox="0 0 500 500" style="enable-background:new 0 0 500 500;" xml:space="preserve"> <style type="text/css"> .st0{fill-opacity:0.85;} </style> <path class="st0" d="M494.8,207.2c-16.4-84-63.3-144.7-140.2-182.2c-27.1-13.2-56.1-20.3-86.2-22.4c-1.3-0.1-2.5-0.5-3.7-0.8 c-9.7,0-19.4,0-29.1,0C226,3,216.5,3.9,207.2,5.7C123,22,62.2,68.9,24.6,145.6c-13.2,26.9-20.3,55.7-22.4,85.6 c-0.1,1.4-0.6,2.8-0.8,4.2c0,72.1,0,144.1,0,216.2c0.3,0.7,0.7,1.5,0.8,2.2c4.8,26,26,44.1,52.4,44.3c10.5,0.1,21,0.1,31.6,0.1v0 c6.5,0,12.9,0,19.4-0.1c11.4,0,18.8-7.1,18.8-18.3c0.1-58.6,0.1-117.3,0-175.9c0-10.9-6.9-18.4-17.7-18.2c-6.8,0.1-13.6,0-20.4-0.1 v-0.3c-9.2-0.1-18.3-0.1-27.5,0.4c-0.1-0.8-0.4-3.7-0.4-4.8c0-10.3,0-20.6,0-31c0-22.9,3.8-45.1,11.9-66.5 C103.1,96.3,190.9,45.8,283,61.6c53.6,9.2,95.5,37.3,126.4,81.9c29.4,42.5,35,90.4,32.1,140.3c0,0.1-0.1,1.8-0.2,2 c-7-0.1-14.1-0.1-21.1-0.2v-0.1c-8.9,0-17.8,0-26.7,0c-10.9,0.1-17.7,7.3-17.8,18.3c-0.1,58.6-0.1,117.3,0,175.9 c0,11,7.3,18.3,18.3,18.3c8.7,0,17.4,0.1,26.1,0.1v0c8.8,0,17.5-0.1,26.3-0.2c23-0.3,42.9-15.4,49.8-37.2c1-3,1.7-6.2,2.5-9.3 c0-72.1,0-144.1,0-216.2C497.4,226,496.6,216.5,494.8,207.2z"></path> </svg> 