<?xml version="1.0" encoding="UTF-8"?> <!-- Generator: Adobe Illustrator 27.4.1, SVG Export Plug-In . SVG Version: 6.00 Build 0) --> <svg xmlns="http://www.w3.org/2000/svg" xmlns:xlink="http://www.w3.org/1999/xlink" id="Слой_1" x="0px" y="0px" viewBox="0 0 104 104" style="enable-background:new 0 0 104 104;" xml:space="preserve"> <style type="text/css"> .st0{fill:#575757;} .st1{fill:#828282;} </style> <g> <g> <path class="st0" d="M47.3,63h-5.7L45.2,41h5.7L47.3,63z M36.7,41l-5.5,15.2l-0.6-3.3l0,0L28.7,43c0,0-0.2-2-2.7-2h-9.1l-0.1,0.4 c0,0,2.8,0.6,6,2.5l5,19.2h6L42.9,41L36.7,41L36.7,41z M81.9,63h5.3L82.6,41H78c-2.1,0-2.7,1.6-2.7,1.6L66.8,63h6l1.2-3.3h7.3 L81.9,63L81.9,63z M75.6,55.2l3-8.3l1.7,8.3H75.6z M67.2,46.3l0.8-4.7c0,0-2.5-1-5.2-1c-2.9,0-9.6,1.2-9.6,7.3 c0,5.7,7.9,5.8,7.9,8.8s-7.1,2.5-9.5,0.6l-0.9,5c0,0,2.6,1.2,6.5,1.2c3.9,0,9.8-2,9.8-7.6c0-5.7-8-6.3-8-8.8 C59.2,44.6,64.8,44.9,67.2,46.3L67.2,46.3z"></path> </g> <path class="st1" d="M30.6,52.9L28.7,43c0,0-0.2-2-2.7-2h-9.1l-0.1,0.4c0,0,4.4,0.9,8.5,4.3C29.3,48.9,30.6,52.9,30.6,52.9z"></path> </g> </svg> 